<?xml version="1.0" encoding="UTF-8" standalone="no"?>
<svg width="395px" height="108px" viewBox="0 0 395 108" version="1.1" xmlns="http://www.w3.org/2000/svg" xmlns:xlink="http://www.w3.org/1999/xlink" xmlns:sketch="http://www.bohemiancoding.com/sketch/ns">
    <!-- Generator: Sketch 3.4.1 (15681) - http://www.bohemiancoding.com/sketch -->
    <title>Slice 1</title>
    <desc>Created with Sketch.</desc>
    <defs></defs>
    <g id="Page-1" stroke="none" stroke-width="1" fill="none" fill-rule="evenodd" sketch:type="MSPage">
        <path d="M0.516601562,38 L0.516601562,0.3046875 L6.18066406,0.3046875 C8.70346313,0.3046875 10.7135342,0.499998047 12.2109375,0.890625 C13.7246169,1.28125195 15.0022734,1.94042505 16.0439453,2.86816406 C17.1018933,3.82845532 17.9401011,5.02473242 18.5585938,6.45703125 C19.1933625,7.9056062 19.5107422,9.3704353 19.5107422,10.8515625 C19.5107422,13.5533989 18.4772239,15.8401599 16.4101562,17.7119141 C18.4121194,18.3955112 19.9908796,19.5917883 21.1464844,21.3007812 C22.3183652,22.993498 22.9042969,24.9628794 22.9042969,27.2089844 C22.9042969,30.1549626 21.8626406,32.6451721 19.7792969,34.6796875 C18.5260354,35.932949 17.1181719,36.8037085 15.5556641,37.2919922 C13.8466711,37.7639998 11.7063931,38 9.13476562,38 L0.516601562,38 Z M6.20507812,16.4912109 L7.98730469,16.4912109 C10.1032007,16.4912109 11.6534781,16.0232794 12.6381836,15.0874023 C13.622889,14.1515253 14.1152344,12.7721445 14.1152344,10.9492188 C14.1152344,9.17512134 13.6106821,7.82829236 12.6015625,6.90869141 C11.5924429,5.98909045 10.1276138,5.52929688 8.20703125,5.52929688 L6.20507812,5.52929688 L6.20507812,16.4912109 Z M6.20507812,32.6533203 L9.72070312,32.6533203 C12.2923306,32.6533203 14.1803325,32.1487681 15.3847656,31.1396484 C16.6543032,30.0491482 17.2890625,28.6656985 17.2890625,26.9892578 C17.2890625,25.3616455 16.678717,23.9944717 15.4580078,22.8876953 C14.2698508,21.7971951 12.1458486,21.2519531 9.0859375,21.2519531 L6.20507812,21.2519531 L6.20507812,32.6533203 Z M50.4308862,27.4042969 L33.3898706,27.4042969 C33.5363557,29.3574316 34.171115,30.9117781 35.2941675,32.0673828 C36.41722,33.2067114 37.8576353,33.7763672 39.6154566,33.7763672 C40.9826509,33.7763672 42.1138245,33.4508496 43.0090112,32.7998047 C43.8879219,32.1487598 44.8888884,30.9443447 46.0119409,29.1865234 L50.6506128,31.7744141 C49.9344634,32.9951233 49.177635,34.0408485 48.380105,34.9116211 C47.582575,35.7823937 46.7280913,36.4985323 45.8166284,37.0600586 C44.9051655,37.6215848 43.9204749,38.0325508 42.8625269,38.2929688 C41.8045789,38.5533867 40.6571294,38.6835938 39.4201441,38.6835938 C35.8719492,38.6835938 33.0236704,37.5442822 30.8752222,35.265625 C28.7267739,32.9706917 27.6525659,29.9271023 27.6525659,26.1347656 C27.6525659,22.3749812 28.6942222,19.3313918 30.7775659,17.0039062 C32.8771858,14.7089729 35.6603611,13.5615234 39.1271753,13.5615234 C42.6265418,13.5615234 45.3934412,14.6764211 47.4279566,16.90625 C49.4461958,19.1198027 50.4553003,22.1878059 50.4553003,26.1103516 L50.4308862,27.4042969 Z M44.7912378,22.9121094 C44.02626,19.9824072 42.1789478,18.5175781 39.2492456,18.5175781 C38.5819246,18.5175781 37.9553032,18.6193024 37.3693628,18.8227539 C36.7834224,19.0262054 36.2503873,19.3191713 35.7702417,19.7016602 C35.2900961,20.084149 34.8791301,20.5439426 34.5373316,21.0810547 C34.195533,21.6181667 33.9351189,22.2285122 33.7560816,22.9121094 L44.7912378,22.9121094 Z M88.8825025,14.2207031 L94.4000806,14.2207031 L94.4000806,38 L88.8825025,38 L88.8825025,35.5097656 C86.6201214,37.6256616 84.1868775,38.6835938 81.5826978,38.6835938 C78.2949209,38.6835938 75.5768491,37.4954546 73.4284009,35.1191406 C71.2962288,32.6939983 70.2301587,29.6666848 70.2301587,26.0371094 C70.2301587,22.4726384 71.2962288,19.5022905 73.4284009,17.1259766 C75.560573,14.7496626 78.2298172,13.5615234 81.4362134,13.5615234 C84.2031543,13.5615234 86.6852259,14.700835 88.8825025,16.9794922 L88.8825025,14.2207031 Z M75.8453931,26.0371094 C75.8453931,28.3157666 76.4557386,30.1712168 77.6764478,31.6035156 C78.9297093,33.0520906 80.5084695,33.7763672 82.4127759,33.7763672 C84.4472913,33.7763672 86.0911551,33.0765044 87.3444165,31.6767578 C88.597678,30.2281829 89.2242993,28.3890085 89.2242993,26.1591797 C89.2242993,23.9293508 88.597678,22.0901765 87.3444165,20.6416016 C86.0911551,19.2255789 84.4635672,18.5175781 82.461604,18.5175781 C80.5735738,18.5175781 78.9948135,19.2337168 77.7252759,20.6660156 C76.4720144,22.1145906 75.8453931,23.9049373 75.8453931,26.0371094 L75.8453931,26.0371094 Z M121.743298,50.9394531 L116.250134,50.9394531 L116.250134,14.2207031 L121.743298,14.2207031 L121.743298,16.8085938 C123.908023,14.6438694 126.36568,13.5615234 129.116345,13.5615234 C132.387846,13.5615234 135.081504,14.7659385 137.1974,17.1748047 C139.345848,19.5673948 140.420056,22.5865703 140.420056,26.2324219 C140.420056,29.7968928 139.353986,32.7672407 137.221814,35.1435547 C135.105918,37.5035925 132.436674,38.6835938 129.214002,38.6835938 C126.430784,38.6835938 123.940575,37.568696 121.743298,35.3388672 L121.743298,50.9394531 Z M134.804822,26.2568359 C134.804822,23.9781787 134.186338,22.1227285 132.949353,20.6904297 C131.696092,19.2418547 130.117331,18.5175781 128.213025,18.5175781 C126.194786,18.5175781 124.55906,19.2174409 123.305798,20.6171875 C122.052537,22.0169341 121.425916,23.8561084 121.425916,26.1347656 C121.425916,28.3645945 122.052537,30.2037688 123.305798,31.6523438 C124.542784,33.0683665 126.170372,33.7763672 128.188611,33.7763672 C130.092917,33.7763672 131.66354,33.0602285 132.900525,31.6279297 C134.170063,30.1956309 134.804822,28.4052842 134.804822,26.2568359 L134.804822,26.2568359 Z M145.973989,14.2207031 L151.467153,14.2207031 L151.467153,16.3447266 C152.476273,15.2867786 153.371446,14.562502 154.1527,14.171875 C154.95023,13.7649719 155.894231,13.5615234 156.984731,13.5615234 C158.433306,13.5615234 159.946963,14.0335239 161.525747,14.9775391 L159.011099,20.0068359 C157.969427,19.2581343 156.952184,18.8837891 155.959341,18.8837891 C152.964534,18.8837891 151.467153,21.1461362 151.467153,25.6708984 L151.467153,38 L145.973989,38 L145.973989,14.2207031 Z M162.856047,25.9394531 C162.856047,22.5051912 164.084876,19.5836709 166.542571,17.1748047 C169.000265,14.7659385 171.995027,13.5615234 175.526946,13.5615234 C179.075141,13.5615234 182.086178,14.7740764 184.560149,17.1992188 C187.001567,19.6243611 188.222258,22.6028469 188.222258,26.1347656 C188.222258,29.6992366 186.99343,32.6858604 184.535735,35.0947266 C182.061764,37.4873167 179.026313,38.6835938 175.42929,38.6835938 C171.864819,38.6835938 168.878195,37.4629028 166.469329,35.0214844 C164.060462,32.6126182 162.856047,29.5853047 162.856047,25.9394531 L162.856047,25.9394531 Z M168.471282,26.0371094 C168.471282,28.4134233 169.106041,30.2932874 170.375579,31.6767578 C171.677669,33.0765044 173.394774,33.7763672 175.526946,33.7763672 C177.675394,33.7763672 179.392499,33.0846423 180.678313,31.7011719 C181.964127,30.3177014 182.607024,28.4703892 182.607024,26.1591797 C182.607024,23.8479702 181.964127,22.000658 180.678313,20.6171875 C179.376223,19.2174409 177.659118,18.5175781 175.526946,18.5175781 C173.427326,18.5175781 171.726497,19.2174409 170.424407,20.6171875 C169.122317,22.0169341 168.471282,23.8235566 168.471282,26.0371094 L168.471282,26.0371094 Z M194.630684,35.265625 C194.630684,34.3541621 194.964339,33.564782 195.63166,32.8974609 C196.298981,32.2301399 197.096499,31.8964844 198.024238,31.8964844 C198.951977,31.8964844 199.749495,32.2301399 200.416816,32.8974609 C201.084138,33.564782 201.417793,34.3623 201.417793,35.2900391 C201.417793,36.2340542 201.084138,37.0397102 200.416816,37.7070312 C199.765772,38.3580762 198.968253,38.6835938 198.024238,38.6835938 C197.063947,38.6835938 196.258291,38.3580762 195.607246,37.7070312 C194.956201,37.0559863 194.630684,36.2421924 194.630684,35.265625 L194.630684,35.265625 Z M6.20507812,71.8330078 L20.8779297,56.7939453 L28.4707031,56.7939453 L11.4296875,73.859375 L28.5683594,94.4892578 L20.9511719,94.4892578 L7.37695312,77.7167969 L6.20507812,78.8886719 L6.20507812,94.4892578 L0.516601562,94.4892578 L0.516601562,56.7939453 L6.20507812,56.7939453 L6.20507812,71.8330078 Z M52.4572534,83.8935547 L35.4162378,83.8935547 C35.5627229,85.8466895 36.1974822,87.4010359 37.3205347,88.5566406 C38.4435872,89.6959692 39.8840024,90.265625 41.6418237,90.265625 C43.0090181,90.265625 44.1401917,89.9401074 45.0353784,89.2890625 C45.9142891,88.6380176 46.9152556,87.4336025 48.0383081,85.6757812 L52.67698,88.2636719 C51.9608306,89.4843811 51.2040022,90.5301063 50.4064722,91.4008789 C49.6089421,92.2716515 48.7544585,92.9877902 47.8429956,93.5493164 C46.9315327,94.1108427 45.946842,94.5218086 44.8888941,94.7822266 C43.8309461,95.0426445 42.6834966,95.1728516 41.4465112,95.1728516 C37.8983164,95.1728516 35.0500376,94.03354 32.9015894,91.7548828 C30.7531411,89.4599495 29.6789331,86.4163601 29.6789331,82.6240234 C29.6789331,78.864239 30.7205894,75.8206497 32.8039331,73.4931641 C34.903553,71.1982307 37.6867283,70.0507812 41.1535425,70.0507812 C44.6529089,70.0507812 47.4198084,71.165679 49.4543237,73.3955078 C51.472563,75.6090605 52.4816675,78.6770637 52.4816675,82.5996094 L52.4572534,83.8935547 Z M46.817605,79.4013672 C46.0526272,76.471665 44.2053149,75.0068359 41.2756128,75.0068359 C40.6082918,75.0068359 39.9816704,75.1085602 39.39573,75.3120117 C38.8097896,75.5154633 38.2767545,75.8084291 37.7966089,76.190918 C37.3164633,76.5734069 36.9054973,77.0332004 36.5636987,77.5703125 C36.2219002,78.1074246 35.9614861,78.71777 35.7824487,79.4013672 L46.817605,79.4013672 Z M79.8617725,83.8935547 L62.8207569,83.8935547 C62.967242,85.8466895 63.6020012,87.4010359 64.7250537,88.5566406 C65.8481062,89.6959692 67.2885215,90.265625 69.0463428,90.265625 C70.4135371,90.265625 71.5447107,89.9401074 72.4398975,89.2890625 C73.3188081,88.6380176 74.3197747,87.4336025 75.4428272,85.6757812 L80.081499,88.2636719 C79.3653496,89.4843811 78.6085213,90.5301063 77.8109912,91.4008789 C77.0134612,92.2716515 76.1589776,92.9877902 75.2475147,93.5493164 C74.3360518,94.1108427 73.3513611,94.5218086 72.2934131,94.7822266 C71.2354651,95.0426445 70.0880156,95.1728516 68.8510303,95.1728516 C65.3028355,95.1728516 62.4545567,94.03354 60.3061084,91.7548828 C58.1576602,89.4599495 57.0834522,86.4163601 57.0834522,82.6240234 C57.0834522,78.864239 58.1251084,75.8206497 60.2084522,73.4931641 C62.308072,71.1982307 65.0912473,70.0507812 68.5580615,70.0507812 C72.057428,70.0507812 74.8243274,71.165679 76.8588428,73.3955078 C78.877082,75.6090605 79.8861865,78.6770637 79.8861865,82.5996094 L79.8617725,83.8935547 Z M74.222124,79.4013672 C73.4571463,76.471665 71.609834,75.0068359 68.6801319,75.0068359 C68.0128108,75.0068359 67.3861895,75.1085602 66.800249,75.3120117 C66.2143086,75.5154633 65.6812736,75.8084291 65.2011279,76.190918 C64.7209823,76.5734069 64.3100164,77.0332004 63.9682178,77.5703125 C63.6264192,78.1074246 63.3660051,78.71777 63.1869678,79.4013672 L74.222124,79.4013672 Z M91.1041822,107.428711 L85.6110181,107.428711 L85.6110181,70.7099609 L91.1041822,70.7099609 L91.1041822,73.2978516 C93.2689065,71.1331272 95.7265642,70.0507812 98.477229,70.0507812 C101.74873,70.0507812 104.442388,71.2551963 106.558284,73.6640625 C108.706732,76.0566526 109.78094,79.0758281 109.78094,82.7216797 C109.78094,86.2861506 108.71487,89.2564985 106.582698,91.6328125 C104.466802,93.9928503 101.797558,95.1728516 98.5748853,95.1728516 C95.7916682,95.1728516 93.3014588,94.0579539 91.1041822,91.828125 L91.1041822,107.428711 Z M104.165706,82.7460938 C104.165706,80.4674365 103.547222,78.6119863 102.310237,77.1796875 C101.056975,75.7311125 99.4782151,75.0068359 97.5739087,75.0068359 C95.5556695,75.0068359 93.9199436,75.7066987 92.6666822,77.1064453 C91.4134207,78.5061919 90.7867993,80.3453662 90.7867993,82.6240234 C90.7867993,84.8538523 91.4134207,86.6930266 92.6666822,88.1416016 C93.9036675,89.5576243 95.5312554,90.265625 97.5494947,90.265625 C99.4538011,90.265625 101.024423,89.5494863 102.261409,88.1171875 C103.530946,86.6848887 104.165706,84.894542 104.165706,82.7460938 L104.165706,82.7460938 Z M133.462048,70.7099609 L139.614392,84.0644531 L145.742322,70.7099609 L151.91908,70.7099609 L139.565564,96.125 L127.309705,70.7099609 L133.462048,70.7099609 Z M153.298208,82.4287109 C153.298208,78.994449 154.527037,76.0729287 156.984731,73.6640625 C159.442426,71.2551963 162.437188,70.0507812 165.969106,70.0507812 C169.517301,70.0507812 172.528339,71.2633342 175.00231,73.6884766 C177.443728,76.1136189 178.664419,79.0921047 178.664419,82.6240234 C178.664419,86.1884944 177.43559,89.1751182 174.977896,91.5839844 C172.503925,93.9765745 169.468473,95.1728516 165.87145,95.1728516 C162.306979,95.1728516 159.320356,93.9521606 156.911489,91.5107422 C154.502623,89.101876 153.298208,86.0745625 153.298208,82.4287109 L153.298208,82.4287109 Z M158.913442,82.5263672 C158.913442,84.9026812 159.548202,86.7825452 160.817739,88.1660156 C162.119829,89.5657622 163.836934,90.265625 165.969106,90.265625 C168.117555,90.265625 169.83466,89.5739001 171.120474,88.1904297 C172.406287,86.8069592 173.049185,84.959647 173.049185,82.6484375 C173.049185,80.337228 172.406287,78.4899158 171.120474,77.1064453 C169.818384,75.7066987 168.101279,75.0068359 165.969106,75.0068359 C163.869487,75.0068359 162.168657,75.7066987 160.866567,77.1064453 C159.564478,78.5061919 158.913442,80.3128145 158.913442,82.5263672 L158.913442,82.5263672 Z M189.711516,53.2539062 L189.711516,94.4892578 L184.218352,94.4892578 L184.218352,53.2539062 L189.711516,53.2539062 Z M201.906074,70.7099609 L201.906074,84.3574219 C201.906074,88.2962437 203.460421,90.265625 206.56916,90.265625 C209.6779,90.265625 211.232246,88.2962437 211.232246,84.3574219 L211.232246,70.7099609 L216.72541,70.7099609 L216.72541,84.4794922 C216.72541,86.3837986 216.48941,88.0276624 216.017402,89.4111328 C215.561671,90.6481182 214.772291,91.7630159 213.649238,92.7558594 C211.79376,94.3671956 209.433758,95.1728516 206.56916,95.1728516 C203.720839,95.1728516 201.368974,94.3671956 199.513496,92.7558594 C198.374168,91.7630159 197.568512,90.6481182 197.096504,89.4111328 C196.640773,88.3043564 196.41291,86.6604927 196.41291,84.4794922 L196.41291,70.7099609 L201.906074,70.7099609 Z M223.40239,70.7099609 L228.895554,70.7099609 L228.895554,72.9072266 C229.953502,71.8004502 230.856814,71.0517598 231.605515,70.6611328 C232.403045,70.2542297 233.404012,70.0507812 234.608445,70.0507812 C237.294005,70.0507812 239.418007,71.2226445 240.980515,73.5664062 C242.705784,71.2226445 245.041373,70.0507812 247.987351,70.0507812 C253.342196,70.0507812 256.019578,73.2978191 256.019578,79.7919922 L256.019578,94.4892578 L250.502,94.4892578 L250.502,81.28125 C250.502,79.0025928 250.22531,77.3912808 249.671921,76.4472656 C249.102257,75.4869744 248.166394,75.0068359 246.864304,75.0068359 C245.350625,75.0068359 244.247934,75.5764917 243.556199,76.7158203 C242.864464,77.8551489 242.518601,79.6861853 242.518601,82.2089844 L242.518601,94.4892578 L237.001023,94.4892578 L237.001023,81.3544922 C237.001023,77.1227002 235.780332,75.0068359 233.338914,75.0068359 C231.792682,75.0068359 230.665577,75.5846296 229.957566,76.7402344 C229.249555,77.8958391 228.895554,79.7187375 228.895554,82.2089844 L228.895554,94.4892578 L223.40239,94.4892578 L223.40239,70.7099609 Z M284.351831,83.8935547 L267.310816,83.8935547 C267.457301,85.8466895 268.09206,87.4010359 269.215112,88.5566406 C270.338165,89.6959692 271.77858,90.265625 273.536401,90.265625 C274.903596,90.265625 276.034769,89.9401074 276.929956,89.2890625 C277.808867,88.6380176 278.809833,87.4336025 279.932886,85.6757812 L284.571558,88.2636719 C283.855408,89.4843811 283.09858,90.5301063 282.30105,91.4008789 C281.50352,92.2716515 280.649036,92.9877902 279.737573,93.5493164 C278.82611,94.1108427 277.84142,94.5218086 276.783472,94.7822266 C275.725524,95.0426445 274.578074,95.1728516 273.341089,95.1728516 C269.792894,95.1728516 266.944615,94.03354 264.796167,91.7548828 C262.647719,89.4599495 261.573511,86.4163601 261.573511,82.6240234 C261.573511,78.864239 262.615167,75.8206497 264.698511,73.4931641 C266.798131,71.1982307 269.581306,70.0507812 273.04812,70.0507812 C276.547487,70.0507812 279.314386,71.165679 281.348901,73.3955078 C283.367141,75.6090605 284.376245,78.6770637 284.376245,82.5996094 L284.351831,83.8935547 Z M278.712183,79.4013672 C277.947205,76.471665 276.099893,75.0068359 273.170191,75.0068359 C272.502869,75.0068359 271.876248,75.1085602 271.290308,75.3120117 C270.704367,75.5154633 270.171332,75.8084291 269.691187,76.190918 C269.211041,76.5734069 268.800075,77.0332004 268.458276,77.5703125 C268.116478,78.1074246 267.856064,78.71777 267.677026,79.4013672 L278.712183,79.4013672 Z M310.767315,53.2539062 L310.767315,94.4892578 L305.27415,94.4892578 L305.27415,53.2539062 L310.767315,53.2539062 Z M316.345662,82.4287109 C316.345662,78.994449 317.574491,76.0729287 320.032185,73.6640625 C322.48988,71.2551963 325.484641,70.0507812 329.01656,70.0507812 C332.564755,70.0507812 335.575793,71.2633342 338.049763,73.6884766 C340.491182,76.1136189 341.711873,79.0921047 341.711873,82.6240234 C341.711873,86.1884944 340.483044,89.1751182 338.025349,91.5839844 C335.551379,93.9765745 332.515927,95.1728516 328.918904,95.1728516 C325.354433,95.1728516 322.367809,93.9521606 319.958943,91.5107422 C317.550077,89.101876 316.345662,86.0745625 316.345662,82.4287109 L316.345662,82.4287109 Z M321.960896,82.5263672 C321.960896,84.9026812 322.595655,86.7825452 323.865193,88.1660156 C325.167283,89.5657622 326.884388,90.265625 329.01656,90.265625 C331.165008,90.265625 332.882114,89.5739001 334.167927,88.1904297 C335.453741,86.8069592 336.096638,84.959647 336.096638,82.6484375 C336.096638,80.337228 335.453741,78.4899158 334.167927,77.1064453 C332.865838,75.7066987 331.148732,75.0068359 329.01656,75.0068359 C326.91694,75.0068359 325.216111,75.7066987 323.914021,77.1064453 C322.611931,78.5061919 321.960896,80.3128145 321.960896,82.5263672 L321.960896,82.5263672 Z M349.292173,70.7099609 L355.517759,84.2841797 L362.231626,68.5371094 L368.994321,84.2841797 L375.146665,70.7099609 L381.299009,70.7099609 L368.847837,96.2714844 L362.231626,80.9638672 L355.542173,96.2714844 L343.115415,70.7099609 L349.292173,70.7099609 Z M382.946692,91.7548828 C382.946692,90.8434199 383.280348,90.0540398 383.947669,89.3867188 C384.61499,88.7193977 385.412508,88.3857422 386.340247,88.3857422 C387.267986,88.3857422 388.065504,88.7193977 388.732825,89.3867188 C389.400146,90.0540398 389.733801,90.8515579 389.733801,91.7792969 C389.733801,92.723312 389.400146,93.528968 388.732825,94.1962891 C388.08178,94.847334 387.284262,95.1728516 386.340247,95.1728516 C385.379955,95.1728516 384.574299,94.847334 383.923255,94.1962891 C383.27221,93.5452441 382.946692,92.7314502 382.946692,91.7548828 L382.946692,91.7548828 Z" id="Be-a-pro.--Keep-volu" fill="#3E82F7" sketch:type="MSShapeGroup"></path>
    </g>
</svg>